<?xml version="1.0" encoding="utf-8" ?>
<svg baseProfile="full" height="200mm" version="1.1" viewBox="0,0,200,200" width="200mm" xmlns="http://www.w3.org/2000/svg" xmlns:ev="http://www.w3.org/2001/xml-events" xmlns:xlink="http://www.w3.org/1999/xlink"><defs /><rect fill="#1a1a1a" height="200" width="200" x="0" y="0" /><text alignment-baseline="middle" fill="#e1ed5e" style="dominant-baseline: central; font-size:9.0px; font-family:Arial;" text-anchor="middle" x="100.0" y="100.0">2021</text><line stroke="#e1ed5e" stroke-width="0.3" x1="100.0" x2="100.0" y1="15.0" y2="10.0" /><path d="M 100.0 14.0 a86.0,86.0 0 0,1 42.46469731375804,11.215312516191453" fill="none" id="id37" stroke="none" /><text fill="#e1ed5e" style="font-size:6.75px; font-family:Arial;" text-anchor="middle"><textPath startOffset="22.20632615414155" xlink:href="#id37">January</textPath></text><path d="M 109.08828744355905 81.06846463323043 l 13.89888464765103 -28.952344201231934 a53.11568509615384,53.11568509615384 0 0,0 0.8208364755298903,0.40278089368884334 l -14.395192390191351 28.70880814740826" fill="#f67a25" stroke="none" /><path d="M 110.36928655335952 81.73862282372117 l 13.758355398538065 -24.229875022269 a48.863581730769226,48.863581730769226 0 0,0 0.727842287087243,0.421613231649853 l -14.173394418090636 23.989457633229097" fill="#f8621d" stroke="none" /><line stroke="#e1ed5e" stroke-width="0.3" x1="143.23703022742887" x2="145.7803849466894" y1="26.81831364943548" y2="22.513508569990506" /><path d="M 143.74570117128098 25.957352633546492 a86.0,86.0 0 0,1 28.547481713284135,27.462654790039103" fill="none" id="id38" stroke="none" /><text fill="#e1ed5e" style="font-size:6.75px; font-family:Arial;" text-anchor="middle"><textPath startOffset="19.985693538727396" xlink:href="#id38">February</textPath></text><path d="M 112.19680574252982 82.90503203632743 l 21.29414848730137 -29.8457476398734 a57.66346153846153,57.66346153846153 0 0,0 0.80304520962744,0.5834464967053117 l -21.8047390132826 29.474781908351417" fill="#f5932e" stroke="none" /><path d="M 112.77801427241765 83.33499621200491 l 38.33404281725294 -49.995011363985284 a84.0,84.0 0 0,0 1.1398697793622787,0.8896864431071037 l -39.188945151774654 49.32774653165496" fill="#e0ed5e" stroke="none" /><line stroke="#e1ed5e" stroke-width="0.3" x1="172.23445277983987" x2="176.4835382374775" y1="55.19839476539836" y2="52.563006222186495" /><path d="M 173.08426987136738 54.67131705675599 a86.0,86.0 0 0,1 12.851231095245387,41.99856678651699" fill="none" id="id39" stroke="none" /><text fill="#e1ed5e" style="font-size:6.75px; font-family:Arial;" text-anchor="middle"><textPath startOffset="22.20632615414155" xlink:href="#id39">March</textPath></text><path d="M 119.61058180528143 92.48833698450437 l 27.175000078901743 -10.409147727774299 a50.10036057692307,50.10036057692307 0 0,0 0.3015455091112925,0.8079920454234081 l -27.35015017651466 9.939832545321556" fill="#f8691f" stroke="none" /><path d="M 120.37134235888165 94.90015583598534 l 28.45744309688726 -7.124151297627434 a50.335637019230774,50.335637019230774 0 0,0 0.20318147605752507,0.842318391542343 l -28.575857373205604 6.633247674425685" fill="#f86a20" stroke="none" /><line stroke="#e1ed5e" stroke-width="0.3" x1="184.98032266829074" x2="189.97916517819016" y1="98.17113171792111" y2="98.06355123074" /><path d="M 185.9800911702706 98.14961562048488 a86.0,86.0 0 0,1 -9.607161424134198,41.387399972396054" fill="none" id="id40" stroke="none" /><text fill="#e1ed5e" style="font-size:6.75px; font-family:Arial;" text-anchor="middle"><textPath startOffset="21.466115282336823" xlink:href="#id40">April</textPath></text><path d="M 120.89721153311464 102.0752229133903 l 35.21291375053295 3.496861069073499 a56.38611778846154,56.38611778846154 0 0,0 -0.10422758665898453,0.9650180060862128 l -35.147503862372915 -4.102475397044503" fill="#f58c2b" stroke="none" /><path d="M 120.23288151984713 105.62410040840565 l 26.46967419644491 7.357731290649862 a48.47325721153845,48.47325721153845 0 0,0 -0.23038038018216755,0.8019843264806022 l -26.339101179376645 -7.8122730926350465" fill="#f85f1c" stroke="none" /><path d="M 119.26925614724726 108.34839909993367 l 25.661461311478334 11.11781995520013 a48.96634615384615,48.96634615384615 0 0,0 -0.3417359322371762,0.7705243115434927 l -25.466284294509887 -11.55789260323631" fill="#f8621d" stroke="none" /><line stroke="#e1ed5e" stroke-width="0.3" x1="174.80103733775053" x2="179.2010983576182" y1="140.37084112569926" y2="142.7455964860345" /><path d="M 175.68104954172406 140.8457921977663 a86.0,86.0 0 0,1 -30.038265399797805,32.042727171017184" fill="none" id="id41" stroke="none" /><text fill="#e1ed5e" style="font-size:6.75px; font-family:Arial;" text-anchor="middle"><textPath startOffset="22.206326154141568" xlink:href="#id41">May</textPath></text><path d="M 118.48025628344425 109.97397251340804 l 39.64179975087037 21.39506157452039 a66.046875,66.046875 0 0,0 -0.5485777658098728,0.9958279901283319 l -39.26764557560899 -22.07426008304653" fill="#f2bb3e" stroke="none" /><path d="M 117.94076556474637 110.91462005526583 l 38.97357155456385 23.71034414220628 a66.61929086538461,66.61929086538461 0 0,0 -0.604444313814326,0.9745566931280988 l -38.559662601081556 -24.377697166699654" fill="#f2bd3f" stroke="none" /><path d="M 117.55443506779139 111.5257021239791 l 23.658097672921453 15.533179253281585 a49.30168269230769,49.30168269230769 0 0,0 -0.47188024377046894,0.7053969388846159 l -23.387214323740263 -15.938113106372008" fill="#f8641d" stroke="none" /><path d="M 116.93607887273984 112.41649034213515 l 29.097980635362813 21.33284795432516 a57.08022836538461,57.08022836538461 0 0,0 -0.5877598227850307,0.7874003329580471 l -28.72645954588269 -21.830561166792524" fill="#f5902d" stroke="none" /><line stroke="#e1ed5e" stroke-width="0.3" x1="143.8653032363475" x2="146.44561519142675" y1="172.8068346515853" y2="177.08958963109032" /><path d="M 144.38136562736335 173.6633856474863 a86.0,86.0 0 0,1 -40.68145358897372,12.25698825130547" fill="none" id="id42" stroke="none" /><text fill="#e1ed5e" style="font-size:6.75px; font-family:Arial;" text-anchor="middle"><textPath startOffset="21.466115282336833" xlink:href="#id42">June</textPath></text><path d="M 104.13013068566511 120.58985236759428 l 2.689123550831401 13.406030250329234 a34.67307692307692,34.67307692307692 0 0,0 -0.5861935814351804,0.11234539503453475 l -2.457962354824516 -13.450332843712237" fill="#ff0000" stroke="none" /><line stroke="#e1ed5e" stroke-width="0.3" x1="102.19456741930631" x2="102.32365962044197" y1="184.97166512339345" y2="189.96999836594603" /><path d="M 102.22038585953345 185.97133177190398 a86.0,86.0 0 0,1 -42.740103519485714,-10.115201625700543" fill="none" id="id43" stroke="none" /><text fill="#e1ed5e" style="font-size:6.75px; font-family:Arial;" text-anchor="middle"><textPath startOffset="22.20632615414155" xlink:href="#id43">July</textPath></text><line stroke="#e1ed5e" stroke-width="0.3" x1="58.666819895761336" x2="56.23545636021788" y1="174.27360380694188" y2="178.64263932499728" /><path d="M 58.180547188652646 175.14741091055294 a86.0,86.0 0 0,1 -31.652253787137756,-30.449443065178592" fill="none" id="id44" stroke="none" /><text fill="#e1ed5e" style="font-size:6.75px; font-family:Arial;" text-anchor="middle"><textPath startOffset="22.20632615414155" xlink:href="#id44">August</textPath></text><path d="M 84.67929136418377 114.36230785411682 l -16.763601610875504 15.714939354457323 a43.97776442307692,43.97776442307692 0 0,0 -0.5129767316071585,-0.5567349280246233 l 17.031624750478393 -15.424053171631357" fill="#fa4313" stroke="none" /><line stroke="#e1ed5e" stroke-width="0.3" x1="26.63291911575756" x2="22.317208475507996" y1="142.92168965132927" y2="145.44649492493687" /><path d="M 25.769776987707644 143.4266507060508 a86.0,86.0 0 0,1 -11.730757126820373,-40.83630448921669" fill="none" id="id45" stroke="none" /><text fill="#e1ed5e" style="font-size:6.75px; font-family:Arial;" text-anchor="middle"><textPath startOffset="21.46611528233685" xlink:href="#id45">September</textPath></text><line stroke="#e1ed5e" stroke-width="0.3" x1="15.007084014347285" x2="10.007500721073583" y1="101.09737516637583" y2="101.16192664675087" /><path d="M 14.007167355692545 101.11028546245083 a86.0,86.0 0 0,1 10.666146001902534,-42.60595125391555" fill="none" id="id46" stroke="none" /><text fill="#e1ed5e" style="font-size:6.75px; font-family:Arial;" text-anchor="middle"><textPath startOffset="22.20632615414155" xlink:href="#id46">October</textPath></text><path d="M 79.00019446554 99.90962569577889 l -27.42252250016344 -0.11801496860880405 a48.42277644230769,48.42277644230769 0 0,0 0.010761369190319099,-0.8334799032351317 l 27.416428123855404 0.5900311299044076" fill="#f85f1c" stroke="none" /><line stroke="#e1ed5e" stroke-width="0.3" x1="26.266209847984243" x2="21.928928074336255" y1="57.711370442889674" y2="55.22380399835377" /><path d="M 25.398753493254645 57.213857153982495 a86.0,86.0 0 0,1 29.58750427330803,-30.492523968695096" fill="none" id="id47" stroke="none" /><text fill="#e1ed5e" style="font-size:6.75px; font-family:Arial;" text-anchor="middle"><textPath startOffset="21.46611528233685" xlink:href="#id47">November</textPath></text><line stroke="#e1ed5e" stroke-width="0.3" x1="56.762969772571076" x2="54.21961505331055" y1="26.818313649435495" y2="22.513508569990535" /><path d="M 56.25429882871897 25.957352633546506 a86.0,86.0 0 0,1 42.265352541879196,-11.944610805530505" fill="none" id="id48" stroke="none" /><text fill="#e1ed5e" style="font-size:6.75px; font-family:Arial;" text-anchor="middle"><textPath startOffset="22.20632615414155" xlink:href="#id48">December</textPath></text></svg>