<?xml version="1.0" encoding="utf-8" ?>
<svg baseProfile="full" height="200mm" version="1.1" viewBox="0,0,200,200" width="200mm" xmlns="http://www.w3.org/2000/svg" xmlns:ev="http://www.w3.org/2001/xml-events" xmlns:xlink="http://www.w3.org/1999/xlink"><defs /><rect fill="#1a1a1a" height="200" width="200" x="0" y="0" /><text alignment-baseline="middle" fill="#e1ed5e" style="dominant-baseline: central; font-size:9.0px; font-family:Arial;" text-anchor="middle" x="100.0" y="100.0">2018</text><line stroke="#e1ed5e" stroke-width="0.3" x1="100.0" x2="100.0" y1="15.0" y2="10.0" /><path d="M 100.0 14.0 a86.0,86.0 0 0,1 42.46469731375804,11.215312516191453" fill="none" id="id1" stroke="none" /><text fill="#e1ed5e" style="font-size:6.75px; font-family:Arial;" text-anchor="middle"><textPath startOffset="22.20632615414155" xlink:href="#id1">January</textPath></text><line stroke="#e1ed5e" stroke-width="0.3" x1="143.23703022742887" x2="145.7803849466894" y1="26.81831364943548" y2="22.513508569990506" /><path d="M 143.74570117128098 25.957352633546492 a86.0,86.0 0 0,1 28.547481713284135,27.462654790039103" fill="none" id="id2" stroke="none" /><text fill="#e1ed5e" style="font-size:6.75px; font-family:Arial;" text-anchor="middle"><textPath startOffset="19.985693538727396" xlink:href="#id2">February</textPath></text><line stroke="#e1ed5e" stroke-width="0.3" x1="172.23445277983987" x2="176.4835382374775" y1="55.19839476539836" y2="52.563006222186495" /><path d="M 173.08426987136738 54.67131705675599 a86.0,86.0 0 0,1 12.851231095245387,41.99856678651699" fill="none" id="id3" stroke="none" /><text fill="#e1ed5e" style="font-size:6.75px; font-family:Arial;" text-anchor="middle"><textPath startOffset="22.20632615414155" xlink:href="#id3">March</textPath></text><line stroke="#e1ed5e" stroke-width="0.3" x1="184.98032266829074" x2="189.97916517819016" y1="98.17113171792111" y2="98.06355123074" /><path d="M 185.9800911702706 98.14961562048488 a86.0,86.0 0 0,1 -9.607161424134198,41.387399972396054" fill="none" id="id4" stroke="none" /><text fill="#e1ed5e" style="font-size:6.75px; font-family:Arial;" text-anchor="middle"><textPath startOffset="21.466115282336823" xlink:href="#id4">April</textPath></text><line stroke="#e1ed5e" stroke-width="0.3" x1="174.80103733775053" x2="179.2010983576182" y1="140.37084112569926" y2="142.7455964860345" /><path d="M 175.68104954172406 140.8457921977663 a86.0,86.0 0 0,1 -30.038265399797805,32.042727171017184" fill="none" id="id5" stroke="none" /><text fill="#e1ed5e" style="font-size:6.75px; font-family:Arial;" text-anchor="middle"><textPath startOffset="22.206326154141568" xlink:href="#id5">May</textPath></text><line stroke="#e1ed5e" stroke-width="0.3" x1="143.8653032363475" x2="146.44561519142675" y1="172.8068346515853" y2="177.08958963109032" /><path d="M 144.38136562736335 173.6633856474863 a86.0,86.0 0 0,1 -40.68145358897372,12.25698825130547" fill="none" id="id6" stroke="none" /><text fill="#e1ed5e" style="font-size:6.75px; font-family:Arial;" text-anchor="middle"><textPath startOffset="21.466115282336833" xlink:href="#id6">June</textPath></text><line stroke="#e1ed5e" stroke-width="0.3" x1="102.19456741930631" x2="102.32365962044197" y1="184.97166512339345" y2="189.96999836594603" /><path d="M 102.22038585953345 185.97133177190398 a86.0,86.0 0 0,1 -42.740103519485714,-10.115201625700543" fill="none" id="id7" stroke="none" /><text fill="#e1ed5e" style="font-size:6.75px; font-family:Arial;" text-anchor="middle"><textPath startOffset="22.20632615414155" xlink:href="#id7">July</textPath></text><path d="M 93.42475214034765 119.94407469862007 l -5.468047060497381 16.58570769618039 a38.46382656919587,38.46382656919587 0 0,0 -0.6270158105566215,-0.2127178062007154 l 5.752732603991228 -16.48912690308155" fill="#fb4112" stroke="none" /><path d="M 93.08242187328487 119.8279376855182 l -2.3951796992536316 6.865332483779402 a28.271153684564325,28.271153684564325 0 0,0 -0.45810098082324147,-0.16425871327099764 l 2.5130002407066 -6.823086229468446" fill="#ff0000" stroke="none" /><path d="M 92.7421414339146 119.70592522655815 l -14.312432854488662 38.85991013363172 a62.41181413326612,62.41181413326612 0 0,0 -1.0049187111824536,-0.3799742690932207 l 14.979221786431399 -38.607787614431864" fill="#f2b63b" stroke="none" /><path d="M 92.06813273071674 119.44442032107085 l -13.866493781463292 33.992743992380426 a57.712209058062356,57.712209058062356 0 0,0 -0.9166032788720416,-0.3831402449072418 l 14.449568519832797 -33.74901870445321" fill="#f4a234" stroke="none" /><path d="M 91.7346041902142 119.30500536409082 l -8.246643966506724 19.261207771885925 a41.95235694479455,41.95235694479455 0 0,0 -0.6614075254190532,-0.28994162216825464 l 8.57697216658352 -19.116401596423216" fill="#f95518" stroke="none" /><path d="M 90.42595943632237 118.69057910512821 l -14.891879356448294 29.072140156966924 a53.66431392319973,53.66431392319973 0 0,0 -0.81853180758452,-0.4282171555258907 l 15.39010206655931 -28.811493582496315" fill="#f5902d" stroke="none" /><line stroke="#e1ed5e" stroke-width="0.3" x1="58.666819895761336" x2="56.23545636021788" y1="174.27360380694188" y2="178.64263932499728" /><path d="M 58.180547188652646 175.14741091055294 a86.0,86.0 0 0,1 -31.652253787137756,-30.449443065178592" fill="none" id="id8" stroke="none" /><text fill="#e1ed5e" style="font-size:6.75px; font-family:Arial;" text-anchor="middle"><textPath startOffset="22.20632615414155" xlink:href="#id8">August</textPath></text><path d="M 89.7882731507175 118.34994917583269 l -18.35496621644833 32.9829324821412 a58.74623981178052,58.74623981178052 0 0,0 -0.8793787106464606,-0.49933418227962434 l 18.919993694015997 -32.662095134066945" fill="#f3a735" stroke="none" /><path d="M 88.54995079064634 117.60387380957326 l -15.668572787199741 24.089641282646298 a49.73699689101756,49.73699689101756 0 0,0 -0.7136674081883547,-0.4729798430529119 l 16.080914894128057 -23.816363418502068" fill="#f67e26" stroke="none" /><path d="M 86.24171649860922 115.8653595955263 l -41.274850504172335 47.596078786578886 a84.0,84.0 0 0,0 -1.0842305883736492,-0.9567074329108447 l 42.08802344545257 -46.878548211895755" fill="#e0ed5e" stroke="none" /><path d="M 85.97065885151581 115.62618273729859 l -38.30552791579655 42.66552311514656 a78.33812284681959,78.33812284681959 0 0,0 -0.9956419181779541,-0.9094952858135252 l 39.03426938344136 -41.999835062746456" fill="#eeeb55" stroke="none" /><path d="M 85.18274418774928 114.88116024355367 l -28.59988095649201 28.7232276241216 a61.53365263423242,61.53365263423242 0 0,0 -0.7441451410018859,-0.7538150990594288 l 29.09006672254943 -28.226672031081506" fill="#f2b23a" stroke="none" /><line stroke="#e1ed5e" stroke-width="0.3" x1="26.63291911575756" x2="22.317208475507996" y1="142.92168965132927" y2="145.44649492493687" /><path d="M 25.769776987707644 143.4266507060508 a86.0,86.0 0 0,1 -11.730757126820373,-40.83630448921669" fill="none" id="id9" stroke="none" /><text fill="#e1ed5e" style="font-size:6.75px; font-family:Arial;" text-anchor="middle"><textPath startOffset="21.46611528233685" xlink:href="#id9">September</textPath></text><line stroke="#e1ed5e" stroke-width="0.3" x1="15.007084014347285" x2="10.007500721073583" y1="101.09737516637583" y2="101.16192664675087" /><path d="M 14.007167355692545 101.11028546245083 a86.0,86.0 0 0,1 10.666146001902534,-42.60595125391555" fill="none" id="id10" stroke="none" /><text fill="#e1ed5e" style="font-size:6.75px; font-family:Arial;" text-anchor="middle"><textPath startOffset="22.20632615414155" xlink:href="#id10">October</textPath></text><line stroke="#e1ed5e" stroke-width="0.3" x1="26.266209847984243" x2="21.928928074336255" y1="57.711370442889674" y2="55.22380399835377" /><path d="M 25.398753493254645 57.213857153982495 a86.0,86.0 0 0,1 29.58750427330803,-30.492523968695096" fill="none" id="id11" stroke="none" /><text fill="#e1ed5e" style="font-size:6.75px; font-family:Arial;" text-anchor="middle"><textPath startOffset="21.46611528233685" xlink:href="#id11">November</textPath></text><line stroke="#e1ed5e" stroke-width="0.3" x1="56.762969772571076" x2="54.21961505331055" y1="26.818313649435495" y2="22.513508569990535" /><path d="M 56.25429882871897 25.957352633546506 a86.0,86.0 0 0,1 42.265352541879196,-11.944610805530505" fill="none" id="id12" stroke="none" /><text fill="#e1ed5e" style="font-size:6.75px; font-family:Arial;" text-anchor="middle"><textPath startOffset="22.20632615414155" xlink:href="#id12">December</textPath></text></svg>