<?xml version="1.0" encoding="utf-8" ?>
<svg baseProfile="full" height="200mm" version="1.1" viewBox="0,0,200,200" width="200mm" xmlns="http://www.w3.org/2000/svg" xmlns:ev="http://www.w3.org/2001/xml-events" xmlns:xlink="http://www.w3.org/1999/xlink"><defs /><rect fill="#1a1a1a" height="200" width="200" x="0" y="0" /><text alignment-baseline="middle" fill="#e1ed5e" style="dominant-baseline: central; font-size:9.0px; font-family:Arial;" text-anchor="middle" x="100.0" y="100.0">2020</text><line stroke="#e1ed5e" stroke-width="0.3" x1="100.0" x2="100.0" y1="15.0" y2="10.0" /><path d="M 100.0 14.0 a86.0,86.0 0 0,1 42.35913384403234,11.155469271406648" fill="none" id="id25" stroke="none" /><text fill="#e1ed5e" style="font-size:6.75px; font-family:Arial;" text-anchor="middle"><textPath startOffset="22.145653131862478" xlink:href="#id25">January</textPath></text><line stroke="#e1ed5e" stroke-width="0.3" x1="143.13028292997686" x2="145.6673583964461" y1="26.7553504044142" y2="22.446841604673864" /><path d="M 143.63769802327073 25.89364864446614 a86.0,86.0 0 0,1 29.32050498858742,28.57503671076993" fill="none" id="id26" stroke="none" /><text fill="#e1ed5e" style="font-size:6.75px; font-family:Arial;" text-anchor="middle"><textPath startOffset="20.669276256404974" xlink:href="#id26">February</textPath></text><path d="M 110.96478420261332 82.08984904055464 l 6.122747138251453 -10.00104730802268 a32.72642229225411,32.72642229225411 0 0,0 0.4766149463498717,0.2974429768113413 l -6.293526213391037 9.894468534369793" fill="#fe1405" stroke="none" /><path d="M 111.8722381534696 82.67804972795209 l 7.8929018024111555 -11.515979611946003 a34.961220766296236,34.961220766296236 0 0,0 0.49212897509881054,0.3435442452812709 l -8.089425868683726 11.378790550859605" fill="#fd230a" stroke="none" /><line stroke="#e1ed5e" stroke-width="0.3" x1="172.87174338648825" x2="177.1583165268699" y1="56.24261187166439" y2="53.66864786411523" /><path d="M 173.72905801456457 55.72781907015455 a86.0,86.0 0 0,1 12.242430191666344,42.057860355516425" fill="none" id="id27" stroke="none" /><text fill="#e1ed5e" style="font-size:6.75px; font-family:Arial;" text-anchor="middle"><textPath startOffset="22.145653131862474" xlink:href="#id27">March</textPath></text><path d="M 120.98066250479742 99.09900007780936 l 18.349118801674553 -0.7879901127428791 a39.366030850887384,39.366030850887384 0 0,0 0.023198426355784008,0.6753968716452529 l -18.359941915027186 0.47288697653350625" fill="#fb3e12" stroke="none" /><path d="M 120.99303781780057 99.45929381324524 l 44.86917985075107 -1.155670911017061 a65.88406037485487,65.88406037485487 0 0,0 0.01941561972320983,1.1308625119331746 l -44.882406902072944 0.38526148311481995" fill="#f1c140" stroke="none" /><line stroke="#e1ed5e" stroke-width="0.3" x1="184.99686870605535" x2="189.99668451229388" y1="99.2704041080226" y2="99.22748670261217" /><path d="M 185.99683186730306 99.26182062694052 a86.0,86.0 0 0,1 -10.086455211305974,41.156179273409016" fill="none" id="id28" stroke="none" /><text fill="#e1ed5e" style="font-size:6.75px; font-family:Arial;" text-anchor="middle"><textPath startOffset="21.40746469413373" xlink:href="#id28">April</textPath></text><path d="M 120.99922638620191 99.81974689727618 l 55.225631761330725 -0.4740456287191788 a76.22766627964836,76.22766627964836 0 0,0 0.0,1.3085974628860046 l -55.225631761330725 -0.47404562871917216" fill="#efe451" stroke="none" /><path d="M 120.99922638620191 100.18025310272382 l 16.567410885488147 0.14221129680148437 a37.5680212307182,37.5680212307182 0 0,0 -0.011071060432808517,0.64483376731199 l -16.56252839345667 -0.4265919800825455" fill="#fb330e" stroke="none" /><path d="M 120.93736805541906 101.62068470465957 l 33.746356002940644 2.612181381499237 a54.8473046939791,54.8473046939791 0 0,0 -0.08072054728019477,0.9380951168691241 l -33.69654183296271 -3.1910975457440185" fill="#f5922d" stroke="none" /><path d="M 120.7213421655516 103.40968896794604 l 12.483672087197965 2.054183491354054 a33.651550837618174,33.651550837618174 0 0,0 -0.09868747142876524,0.5692031100261428 l -12.446569798276965 -2.2681796343007847" fill="#fd1a07" stroke="none" /><path d="M 120.65975698304385 103.76489593502545 l 36.96002767751107 6.735348246143221 a58.568717863658975,58.568717863658975 0 0,0 -0.18874106162447316,0.987572988800435 l -36.83896032360444 -7.36882379997697" fill="#f4a334" stroke="none" /><path d="M 120.592083275326 104.11899336999214 l 37.135426209870545 7.42812528024158 a58.871056559960195,58.871056559960195 0 0,0 -0.20672792747237045,0.9892679693074357 l -37.00244057157381 -8.064509700834424" fill="#f3a434" stroke="none" /><path d="M 118.70294669586154 109.54985784667822 l 42.25023267854635 21.573269850492412 a68.43931000165865,68.43931000165865 0 0,0 -0.5432514639142167,1.0417563124459885 l -41.873673145657186 -22.295372406042905" fill="#f1ca45" stroke="none" /><line stroke="#e1ed5e" stroke-width="0.3" x1="174.33088141563837" x2="178.70328620479359" y1="141.23008692659167" y2="143.65538615756765" /><path d="M 175.20536237346943 141.71514677278685 a86.0,86.0 0 0,1 -30.301960400862466,31.631185727798858" fill="none" id="id29" stroke="none" /><text fill="#e1ed5e" style="font-size:6.75px; font-family:Arial;" text-anchor="middle"><textPath startOffset="22.145653131862474" xlink:href="#id29">May</textPath></text><line stroke="#e1ed5e" stroke-width="0.3" x1="143.1302829299769" x2="145.66735839644613" y1="173.24464959558577" y2="177.55315839532614" /><path d="M 143.63769802327073 174.10635135553383 a86.0,86.0 0 0,1 -40.68552437913181,11.842963189579606" fill="none" id="id30" stroke="none" /><text fill="#e1ed5e" style="font-size:6.75px; font-family:Arial;" text-anchor="middle"><textPath startOffset="21.407464694133747" xlink:href="#id30">June</textPath></text><path d="M 104.29559338865022 120.5559693870025 l 1.8043059707111975 8.63425723596702 a29.820766296234865,29.820766296234865 0 0,0 -0.5019878899942363,0.10041163698964634 l -1.6558215951860025 -8.663958269619528" fill="#ff0000" stroke="none" /><path d="M 102.875027216393 120.80226474461374 l 4.833517310558857 34.972923445248774 a56.30535743904462,56.30535743904462 0 0,0 -0.9585911443250318,0.12410881529617179 l -4.232448344343051 -35.050743856745335" fill="#f49930" stroke="none" /><path d="M 101.08105385017728 120.97215588758144 l 0.5743983917163549 11.14317534753332 a32.15796981257257,32.15796981257257 0 0,0 -0.5515463008507051,0.023685771316198142 l -0.3830263302648202 -11.15139368727535" fill="#fe1004" stroke="none" /><path d="M 100.72087961077811 120.9876233191556 l 0.9467687732730532 27.564139818500237 a48.58039475866644,48.58039475866644 0 0,0 -0.8337013080100384,0.02147318835220616 l -0.47345415119227097 -27.57633072420249" fill="#f77322" stroke="none" /><line stroke="#e1ed5e" stroke-width="0.3" x1="101.45913802915013" x2="101.54496967792366" y1="184.9874750549273" y2="189.98673829345242" /><path d="M 101.47630435890484 185.9873277026323 a86.0,86.0 0 0,1 -42.54439059252881,-10.42667462771756" fill="none" id="id31" stroke="none" /><text fill="#e1ed5e" style="font-size:6.75px; font-family:Arial;" text-anchor="middle"><textPath startOffset="22.145653131862474" xlink:href="#id31">July</textPath></text><path d="M 100.36049292484886 120.99690560180557 l 0.2660317003213676 15.495012838539283 a36.49729640072981,36.49729640072981 0 0,0 -0.6265246251702179,0.005377960384960671 l -1.897871443259156e-15 -15.497296400729809" fill="#fc2d0c" stroke="none" /><path d="M 98.91894614982273 120.97215588758144 l -2.4552420235042756 47.631039332803965 a68.69427765798639,68.69427765798639 0 0,0 -1.1771439900670624,-0.07081405933604153 l 3.2725303657037843 -47.581873295643234" fill="#f1cb45" stroke="none" /><path d="M 97.48249496171623 120.84855314841334 l -1.0834165819092836 8.972243489612417 a30.037419140819374,30.037419140819374 0 0,0 -0.5113830245716617,-0.06620877077562717 l 1.2372774283717392 -8.952323122636392" fill="#ff0200" stroke="none" /><path d="M 97.12497278360702 120.80226474461374 l -3.8870329816325127 28.124634331778978 a49.39197213468236,49.39197213468236 0 0,0 -0.8388988783317144,-0.12328924604531225 l 4.369256965571912 -28.053764012434783" fill="#f77724" stroke="none" /><path d="M 96.76829788921471 120.74984581791261 l -2.4610036044182166 15.801408545231451 a36.99190578868801,36.99190578868801 0 0,0 -0.6266120520941872,-0.10310877471824562 l 2.7318931595654674 -15.756833772017538" fill="#fc300d" stroke="none" /><path d="M 96.41257539226777 120.69131181640829 l -6.174249908719968 35.61143273043274 a57.142710233869636,57.142710233869636 0 0,0 -0.9650730738433384,-0.1758684623298008 l 6.784657716114364 -35.50019609417158" fill="#f49c31" stroke="none" /><path d="M 92.59220618246901 119.65005319985036 l -19.627889055818635 52.06530765406033 a76.64216287941616,76.64216287941616 0 0,0 -1.2271057629785045,-0.4746708703542562 l 20.51876708129067 -51.720696895568025" fill="#efe652" stroke="none" /><path d="M 92.25597844496254 119.51999308798841 l -23.232064665112382 58.55997926396522 a84.0,84.0 0 0,0 -1.3357821552382365,-0.5432509736828348 l 24.233901281541062 -58.152541033703095" fill="#e0ed5e" stroke="none" /><path d="M 91.92203290615298 119.3841803445677 l -10.397518699895778 24.950259795971846 a48.03005473544535,48.03005473544535 0 0,0 -0.7583372137103815,-0.32368906301485284 l 10.82429098877659 -24.76809608329759" fill="#f77021" stroke="none" /><path d="M 91.26138138417905 119.09545874513695 l -14.688822155656448 32.09772732044568 a56.29908774257755,56.29908774257755 0 0,0 -0.8753470260328968,-0.40970660704582273 l 15.237657895560835 -31.84084448182933" fill="#f49930" stroke="none" /><path d="M 90.6110303473126 118.78422872680471 l -15.395480840349574 30.801274704460326 a55.43456626306187,55.43456626306187 0 0,0 -0.8475490572944663,-0.43276458768067855 l 15.921957119357623 -30.53245216510681" fill="#f5952e" stroke="none" /><line stroke="#e1ed5e" stroke-width="0.3" x1="58.13341422392154" x2="55.67067388415222" y1="173.97424548756322" y2="178.32567169271397" /><path d="M 57.64086615596768 174.84453072859336 a86.0,86.0 0 0,1 -31.369924170532247,-30.572349798747897" fill="none" id="id32" stroke="none" /><text fill="#e1ed5e" style="font-size:6.75px; font-family:Arial;" text-anchor="middle"><textPath startOffset="22.145653131862474" xlink:href="#id32">August</textPath></text><line stroke="#e1ed5e" stroke-width="0.3" x1="26.387840678322732" x2="22.057713659400548" y1="142.50000000000003" y2="145.00000000000006" /><path d="M 25.521815274538298 143.00000000000003 a86.0,86.0 0 0,1 -11.493303480769221,-40.785679425670985" fill="none" id="id33" stroke="none" /><text fill="#e1ed5e" style="font-size:6.75px; font-family:Arial;" text-anchor="middle"><textPath startOffset="21.40746469413373" xlink:href="#id33">September</textPath></text><path d="M 80.5471966667186 107.91128576633889 l -42.615481151984405 17.33134518902818 a67.00494277657987,67.00494277657987 0 0,0 -0.42417742269226366,-1.0692041983854847 l 42.90671724964279 -16.59723997342913" fill="#f1c542" stroke="none" /><line stroke="#e1ed5e" stroke-width="0.3" x1="15.003131293944662" x2="10.003315487706104" y1="100.72959589197737" y2="100.7725132973878" /><path d="M 14.003168132696942 100.73817937305945 a86.0,86.0 0 0,1 10.791469493833604,-42.45332614584628" fill="none" id="id34" stroke="none" /><text fill="#e1ed5e" style="font-size:6.75px; font-family:Arial;" text-anchor="middle"><textPath startOffset="22.145653131862435" xlink:href="#id34">October</textPath></text><line stroke="#e1ed5e" stroke-width="0.3" x1="26.387840678322718" x2="22.05771365940052" y1="57.49999999999999" y2="54.99999999999999" /><path d="M 25.521815274538284 56.99999999999999 a86.0,86.0 0 0,1 29.574782752854787,-30.34633250058573" fill="none" id="id35" stroke="none" /><text fill="#e1ed5e" style="font-size:6.75px; font-family:Arial;" text-anchor="middle"><textPath startOffset="21.40746469413373" xlink:href="#id35">November</textPath></text><path d="M 84.58840730492382 85.73525988315684 l -14.98725625663155 -13.871980644394002 a41.42179465914745,41.42179465914745 0 0,0 0.48748356696106443,-0.5176906548913374 l 14.746916855934215 14.12721275922985" fill="#fa4b15" stroke="none" /><path d="M 85.34317274990677 84.96080404539775 l -14.818735476143358 -15.205328057865893 a42.23197876928181,42.23197876928181 0 0,0 0.5235307642855497,-0.5015306294405547 l 14.555532225992508 15.457470817612016" fill="#fa5017" stroke="none" /><line stroke="#e1ed5e" stroke-width="0.3" x1="56.869717070023135" x2="54.33264160355391" y1="26.7553504044142" y2="22.446841604673864" /><path d="M 56.362301976729285 25.89364864446614 a86.0,86.0 0 0,1 42.16139366436587,-11.88097634709845" fill="none" id="id36" stroke="none" /><text fill="#e1ed5e" style="font-size:6.75px; font-family:Arial;" text-anchor="middle"><textPath startOffset="22.145653131862474" xlink:href="#id36">December</textPath></text></svg>