<?xml version="1.0" encoding="utf-8" ?>
<svg baseProfile="full" height="200mm" version="1.1" viewBox="0,0,200,200" width="200mm" xmlns="http://www.w3.org/2000/svg" xmlns:ev="http://www.w3.org/2001/xml-events" xmlns:xlink="http://www.w3.org/1999/xlink"><defs /><rect fill="#1a1a1a" height="200" width="200" x="0" y="0" /><text alignment-baseline="middle" fill="#e1ed5e" style="dominant-baseline: central; font-size:9.0px; font-family:Arial;" text-anchor="middle" x="100.0" y="100.0">2024</text><line stroke="#e1ed5e" stroke-width="0.3" x1="100.0" x2="100.0" y1="15.0" y2="10.0" /><path d="M 100.0 14.0 a86.0,86.0 0 0,1 42.35913384403234,11.155469271406648" fill="none" id="id73" stroke="none" /><text fill="#e1ed5e" style="font-size:6.75px; font-family:Arial;" text-anchor="middle"><textPath startOffset="22.145653131862478" xlink:href="#id73">January</textPath></text><line stroke="#e1ed5e" stroke-width="0.3" x1="143.13028292997686" x2="145.6673583964461" y1="26.7553504044142" y2="22.446841604673864" /><path d="M 143.63769802327073 25.89364864446614 a86.0,86.0 0 0,1 29.32050498858742,28.57503671076993" fill="none" id="id74" stroke="none" /><text fill="#e1ed5e" style="font-size:6.75px; font-family:Arial;" text-anchor="middle"><textPath startOffset="20.669276256404974" xlink:href="#id74">February</textPath></text><line stroke="#e1ed5e" stroke-width="0.3" x1="172.87174338648825" x2="177.1583165268699" y1="56.24261187166439" y2="53.66864786411523" /><path d="M 173.72905801456457 55.72781907015455 a86.0,86.0 0 0,1 12.242430191666344,42.057860355516425" fill="none" id="id75" stroke="none" /><text fill="#e1ed5e" style="font-size:6.75px; font-family:Arial;" text-anchor="middle"><textPath startOffset="22.145653131862474" xlink:href="#id75">March</textPath></text><line stroke="#e1ed5e" stroke-width="0.3" x1="184.99686870605535" x2="189.99668451229388" y1="99.2704041080226" y2="99.22748670261217" /><path d="M 185.99683186730306 99.26182062694052 a86.0,86.0 0 0,1 -10.086455211305974,41.156179273409016" fill="none" id="id76" stroke="none" /><text fill="#e1ed5e" style="font-size:6.75px; font-family:Arial;" text-anchor="middle"><textPath startOffset="21.40746469413373" xlink:href="#id76">April</textPath></text><line stroke="#e1ed5e" stroke-width="0.3" x1="174.33088141563837" x2="178.70328620479359" y1="141.23008692659167" y2="143.65538615756765" /><path d="M 175.20536237346943 141.71514677278685 a86.0,86.0 0 0,1 -30.301960400862466,31.631185727798858" fill="none" id="id77" stroke="none" /><text fill="#e1ed5e" style="font-size:6.75px; font-family:Arial;" text-anchor="middle"><textPath startOffset="22.145653131862474" xlink:href="#id77">May</textPath></text><line stroke="#e1ed5e" stroke-width="0.3" x1="143.1302829299769" x2="145.66735839644613" y1="173.24464959558577" y2="177.55315839532614" /><path d="M 143.63769802327073 174.10635135553383 a86.0,86.0 0 0,1 -40.68552437913181,11.842963189579606" fill="none" id="id78" stroke="none" /><text fill="#e1ed5e" style="font-size:6.75px; font-family:Arial;" text-anchor="middle"><textPath startOffset="21.407464694133747" xlink:href="#id78">June</textPath></text><line stroke="#e1ed5e" stroke-width="0.3" x1="101.45913802915013" x2="101.54496967792366" y1="184.9874750549273" y2="189.98673829345242" /><path d="M 101.47630435890484 185.9873277026323 a86.0,86.0 0 0,1 -42.54439059252881,-10.42667462771756" fill="none" id="id79" stroke="none" /><text fill="#e1ed5e" style="font-size:6.75px; font-family:Arial;" text-anchor="middle"><textPath startOffset="22.145653131862474" xlink:href="#id79">July</textPath></text><line stroke="#e1ed5e" stroke-width="0.3" x1="58.13341422392154" x2="55.67067388415222" y1="173.97424548756322" y2="178.32567169271397" /><path d="M 57.64086615596768 174.84453072859336 a86.0,86.0 0 0,1 -31.369924170532247,-30.572349798747897" fill="none" id="id80" stroke="none" /><text fill="#e1ed5e" style="font-size:6.75px; font-family:Arial;" text-anchor="middle"><textPath startOffset="22.145653131862474" xlink:href="#id80">August</textPath></text><line stroke="#e1ed5e" stroke-width="0.3" x1="26.387840678322732" x2="22.057713659400548" y1="142.50000000000003" y2="145.00000000000006" /><path d="M 25.521815274538298 143.00000000000003 a86.0,86.0 0 0,1 -11.493303480769221,-40.785679425670985" fill="none" id="id81" stroke="none" /><text fill="#e1ed5e" style="font-size:6.75px; font-family:Arial;" text-anchor="middle"><textPath startOffset="21.40746469413373" xlink:href="#id81">September</textPath></text><path d="M 80.83023694016515 108.57439118712176 l -23.37705668408935 10.456260110636372 a46.60898581967689,46.60898581967689 0 0,0 -0.32041706409109233,-0.7331769478818501 l 23.55310763019741 -10.053421092978672" fill="#fd250a" stroke="none" /><path d="M 80.68587082218212 108.24405325689762 l -45.163370913249345 19.277557462827033 a70.10554239574526,70.10554239574526 0 0,0 -0.4629441373829325,-1.1108974008233339 l 45.48764089516876 -18.499427552562416" fill="#f1c140" stroke="none" /><path d="M 80.5471966667186 107.91128576633889 l -36.23025452450422 14.734529107183233 a60.11186125615589,60.11186125615589 0 0,0 -0.38054049931646916,-0.9592106457303397 l 36.47785369878681 -14.110417444239328" fill="#f5882a" stroke="none" /><path d="M 80.16572619554312 106.89939002012753 l -50.960282014420116 17.726631416884494 a74.9553871673562,74.9553871673562 0 0,0 -0.412306664262721,-1.2189113907996694 l 51.2570741002552 -16.849218351610663" fill="#f0d74b" stroke="none" /><path d="M 79.73907114497094 105.5222062557868 l -54.741503363214264 14.920040166296832 a77.73834496201584,77.73834496201584 0 0,0 -0.3398665624925464,-1.2905286957881448 l 54.98955940651154 -13.978130966135884" fill="#efe351" stroke="none" /><path d="M 79.48165901384964 104.47187691870673 l -40.11348707505836 8.742547806417454 a62.05513350932339,62.05513350932339 0 0,0 -0.21790893333700243,-1.0427731299394174 l 40.257653719219725 -8.052658225192626" fill="#f5942e" stroke="none" /><path d="M 79.407916724674 104.11899336999214 l -60.714435020309885 12.144587410984808 a82.9171512847489,82.9171512847489 0 0,0 -0.26720528861144166,-1.3981309802225805 l 60.913966601203484 -11.100553865728914" fill="#e4ed5c" stroke="none" /><path d="M 79.22317932658666 103.0534771498775 l -51.12302389563232 7.5133239946431605 a72.67217442378319,72.67217442378319 0 0,0 -0.17079858579379706,-1.2358134835836039 l 51.24446699798133 -6.634622202859471" fill="#f0cd46" stroke="none" /><path d="M 79.17382384314188 102.69636545807758 l -62.47852847057439 8.089096374232748 a84.0,84.0 0 0,0 -0.1728716549613547,-1.431625292306403 l 62.6081822117954 -7.015377405002945" fill="#e0ed5e" stroke="none" /><path d="M 79.03789590574601 101.26102812881392 l -23.861672635778117 1.4354589720081448 a44.90481046645969,44.90481046645969 0 0,0 -0.03968390038149292,-0.7698570657617758 l 23.882798125616183 -1.0256301128696381" fill="#fe1606" stroke="none" /><line stroke="#e1ed5e" stroke-width="0.3" x1="15.003131293944662" x2="10.003315487706104" y1="100.72959589197737" y2="100.7725132973878" /><path d="M 14.003168132696942 100.73817937305945 a86.0,86.0 0 0,1 10.791469493833604,-42.45332614584628" fill="none" id="id82" stroke="none" /><text fill="#e1ed5e" style="font-size:6.75px; font-family:Arial;" text-anchor="middle"><textPath startOffset="22.145653131862435" xlink:href="#id82">October</textPath></text><path d="M 79.03789590574601 98.7389718711861 l -23.608800926380116 -1.4202468379066007 a44.65148160817902,44.65148160817902 0 0,0 0.05259527538558847,-0.764723761030181 l 23.580941689829466 1.8253140230911067" fill="#fe1405" stroke="none" /><path d="M 79.0935383218832 98.0201363427161 l -24.542790473801976 -2.324227774912084 a45.652598219875685,45.652598219875685 0 0,0 0.08058250442888804,-0.779562631794408 l 24.499275576891424 2.7451949289894046" fill="#fd1c08" stroke="none" /><path d="M 79.17382384314186 97.30363454192245 l -23.29319616555103 -3.0157705896640956 a44.48761077368927,44.48761077368927 0 0,0 0.10455750176377031,-0.7565259975013858 l 23.237994147232055 3.4151848953655484" fill="#fe1205" stroke="none" /><path d="M 79.2786578344484 96.59031103205396 l -48.377305046405006 -7.9604671356623165 a70.0278765659995,70.0278765659995 0 0,0 0.20536569328325557,-1.1844947450485612 l 48.23352453562952 8.789754913631471" fill="#f1c040" stroke="none" /><path d="M 79.48165901384962 95.52812308129327 l -22.52735928928722 -4.909733107231963 a44.056179122588475,44.056179122588475 0 0,0 0.16739069405965068,-0.7375542836826275 l 22.439757733669904 5.295721724853599" fill="#fe0f04" stroke="none" /><path d="M 80.5471966667186 92.08871423366112 l -21.450528503747602 -8.72374320167039 a44.15661608566283,44.15661608566283 0 0,0 0.2915895925622019,-0.6997088726853117 l 21.29761306664892 9.090684583796964" fill="#fe0f04" stroke="none" /><path d="M 80.9802524753101 91.09779779509293 l -31.90070283132656 -14.931139685974914 a56.22206373077395,56.22206373077395 0 0,0 0.4166342512765978,-0.8706053444451233 l 31.639689322090057 15.476557532485126" fill="#f76e21" stroke="none" /><path d="M 81.29705330413844 90.45014215332179 l -19.097930602381528 -9.751539443719073 a42.44349493006655,42.44349493006655 0 0,0 0.3369041966354829,-0.6460582195319738 l 18.927718336771104 10.077943906355534" fill="#ff0000" stroke="none" /><line stroke="#e1ed5e" stroke-width="0.3" x1="26.387840678322718" x2="22.05771365940052" y1="57.49999999999999" y2="54.99999999999999" /><path d="M 25.521815274538284 56.99999999999999 a86.0,86.0 0 0,1 29.574782752854787,-30.34633250058573" fill="none" id="id83" stroke="none" /><text fill="#e1ed5e" style="font-size:6.75px; font-family:Arial;" text-anchor="middle"><textPath startOffset="21.40746469413373" xlink:href="#id83">November</textPath></text><path d="M 81.81346652052679 89.5 l -38.193445840138104 -22.05099623708313 a65.10199247416625,65.10199247416625 0 0,0 0.5670888545932504,-0.9630408525647792 l 37.80928327541507 22.703388257941484" fill="#f3a635" stroke="none" /><path d="M 82.37810715431573 88.57770195909679 l -25.70963113559615 -16.664672287142206 a51.63815326625057,51.63815326625057 0 0,0 0.4885351939652248,-0.7397045498999861 l 25.419771502710194 17.103556715381252" fill="#fa4d16" stroke="none" /><path d="M 82.78059297857968 87.97951657250589 l -18.005840667471 -12.5694751899524 a42.959098449006994,42.959098449006994 0 0,0 0.42730985936962124,-0.6010648306831419 l 17.787415709571405 12.876717247345061" fill="#ff0501" stroke="none" /><path d="M 83.64595745247003 86.82634096563983 l -18.25520408395903 -14.705100191943519 a44.44125525227034,44.44125525227034 0 0,0 0.48367572594925384,-0.5900057410851353 l 18.000081538771145 15.016308214727147" fill="#fe1205" stroke="none" /><path d="M 84.10781606972428 86.27271002978789 l -17.202676477978294 -14.859262220536003 a43.73169047265593,43.73169047265593 0 0,0 0.4956027850895019,-0.5639049928834173 l 16.9450626289302 15.152379491230722" fill="#fe0c03" stroke="none" /><path d="M 84.83555147118756 85.47280134310135 l -32.921181588910024 -31.537747254919985 a66.58984206076175,66.58984206076175 0 0,0 0.7978515796081478,-0.8186660075658329 l 32.37494320815107 32.09823595455355" fill="#f3af38" stroke="none" /><path d="M 85.60350026404147 84.71141617570332 l -16.75501571575689 -17.79324606299533 a45.44033872706267,45.44033872706267 0 0,0 0.572483848028114,-0.5298825030472314 l 16.447102096414824 18.078246312174926" fill="#fd1b07" stroke="none" /><path d="M 86.68645165197937 83.75963576809568 l -15.22190409994464 -18.568247954946738 a45.01012695810447,45.01012695810447 0 0,0 0.6017408795095441,-0.4847198575310027 l 14.900912450079849 18.82681610627114" fill="#fd1706" stroke="none" /><path d="M 88.4268655584334 82.4767994020092 l -12.657221757699737 -19.164646966928597 a43.96712772617841,43.96712772617841 0 0,0 0.6333660878837831,-0.4105402460542852 l 12.326370037558927 19.37910105468679" fill="#fe0e04" stroke="none" /><line stroke="#e1ed5e" stroke-width="0.3" x1="56.869717070023135" x2="54.33264160355391" y1="26.7553504044142" y2="22.446841604673864" /><path d="M 56.362301976729285 25.89364864446614 a86.0,86.0 0 0,1 42.16139366436587,-11.88097634709845" fill="none" id="id84" stroke="none" /><text fill="#e1ed5e" style="font-size:6.75px; font-family:Arial;" text-anchor="middle"><textPath startOffset="22.145653131862474" xlink:href="#id84">December</textPath></text><path d="M 89.65649057296885 81.72400993836675 l -12.056667988519324 -21.302977088099997 a45.47815507348338,45.47815507348338 0 0,0 0.6827263189930316,-0.3786967804371103 l 11.68919748137019 21.506806783970255" fill="#fd1b07" stroke="none" /><path d="M 90.61103034731259 81.2157712731953 l -10.920033520779722 -21.84738208201451 a45.42448025920882,45.42448025920882 0 0,0 0.7004882078353797,-0.3426438843640188 l 10.543385063682289 22.031619716475742" fill="#fd1a07" stroke="none" /><path d="M 91.5904679813234 80.7573450057729 l -9.805466677247235 -22.43682667580257 a45.48588099371987,45.48588099371987 0 0,0 0.7181677482137829,-0.3065431068184222 l 9.418863853863021 22.601844432280398" fill="#fd1b07" stroke="none" /><path d="M 92.592206182469 80.34994680014964 l -8.635867786299974 -22.90766530597467 a45.48140809253032,45.48140809253032 0 0,0 0.7329238998360971,-0.26913980807364707 l 8.24135473480975 23.05253596305704" fill="#fd1b07" stroke="none" /><path d="M 93.61358852112211 79.99465700312896 l -7.458020104647665 -23.362141754331713 a45.52369734014058,45.52369734014058 0 0,0 0.7465005526378524,-0.23126777942399482 l 7.0558789191381965 23.486726121562352" fill="#fd1b07" stroke="none" /><path d="M 94.6519064749342 79.69241777938228 l -6.2169995051536935 -23.606959755793504 a45.41187481040191,45.41187481040191 0 0,0 0.7555556515936293,-0.19205929205770977 l 5.810838560334687 23.710204279686476" fill="#fd1a07" stroke="none" /><path d="M 95.70440661134978 79.44403061299748 l -4.983102371619361 -23.845948751563338 a45.36104638779344,45.36104638779344 0 0,0 0.763585205622732,-0.1527384265754567 l 4.573020680465652 23.92797657480166" fill="#fd1a07" stroke="none" /><path d="M 96.76829788921471 79.25015418208739 l -3.613458173287106 -23.20099359249542 a44.48069810821452,44.48069810821452 0 0,0 0.7554832523925649,-0.11103002160709204 l 3.2146498152868563 23.259604687401396" fill="#fe1205" stroke="none" /><path d="M 97.84075906011542 79.11130261209362 l -2.594425552516075 -25.098713747460273 a46.23244886499326,46.23244886499326 0 0,0 0.7901355277821915,-0.07482665598178491 l 2.1631904613488677 25.139552158947243" fill="#fd2109" stroke="none" /><path d="M 98.9189461498227 79.02784411241856 l -1.302033082717262 -25.259093963780217 a46.292629717361706,46.292629717361706 0 0,0 0.7939720332494583,-0.034096575359130764 l 0.8682352888669834 25.277723107565176" fill="#fd2209" stroke="none" /></svg>